# xmcd
#
# Track frame offsets: 
#        150
#        18207
#        44529
#        67500
#        83324
#        108716
#        129831
#        148678
#        167179
#        184143
#        199932
#        223619
#        248645
#        273496
#        289536
#        312024
#        340644
#
# Disc length: 4799 seconds
#
# Revision: 1
# Processed by: cddbd v1.5.1PL2 Copyright (c) Steve Scherf et al.
# Submitted via: ExactAudioCopy v0.95b4
#
DISCID=e812bd11
DTITLE=Сергей Наговицын - GRAND Collection
DYEAR=2004
DGENRE=Chanson
TTITLE0=Городские встречи
TTITLE1=Гуляй, братва
TTITLE2=Малолетка
TTITLE3=Дори-Дори
TTITLE4=Там на ёлках
TTITLE5=Воля
TTITLE6=Мадам
TTITLE7=Охота
TTITLE8=Вечер для звёзд
TTITLE9=Улица
TTITLE10=Сизый
TTITLE11=Зона
TTITLE12=Забор
TTITLE13=До утра
TTITLE14=Глашка
TTITLE15=Озоновый слой
TTITLE16=Этап
EXTD=
EXTT0=Городские встречи
EXTT1=
EXTT2=
EXTT3=
EXTT4=
EXTT5=
EXTT6=
EXTT7=
EXTT8=
EXTT9=
EXTT10=
EXTT11=
EXTT12=
EXTT13=
EXTT14=
EXTT15=
EXTT16=
PLAYORDER=
